%TF.GenerationSoftware,KiCad,Pcbnew,8.0.3*%
%TF.CreationDate,2024-06-24T21:54:25-07:00*%
%TF.ProjectId,Hardware_Device,48617264-7761-4726-955f-446576696365,rev?*%
%TF.SameCoordinates,Original*%
%TF.FileFunction,Copper,L2,Bot*%
%TF.FilePolarity,Positive*%
%FSLAX46Y46*%
G04 Gerber Fmt 4.6, Leading zero omitted, Abs format (unit mm)*
G04 Created by KiCad (PCBNEW 8.0.3) date 2024-06-24 21:54:25*
%MOMM*%
%LPD*%
G01*
G04 APERTURE LIST*
%TA.AperFunction,ComponentPad*%
%ADD10O,2.400000X1.800000*%
%TD*%
%TA.AperFunction,ComponentPad*%
%ADD11O,1.800000X1.800000*%
%TD*%
%TA.AperFunction,ComponentPad*%
%ADD12O,1.800000X2.400000*%
%TD*%
%TA.AperFunction,ComponentPad*%
%ADD13O,3.000000X2.000000*%
%TD*%
%TA.AperFunction,Conductor*%
%ADD14C,0.500000*%
%TD*%
G04 APERTURE END LIST*
D10*
%TO.P,M10,1,GND*%
%TO.N,GND*%
X189298000Y-90860000D03*
%TO.P,M10,2,TX*%
%TO.N,Net-(M10-TX)*%
X189298000Y-88320000D03*
%TO.P,M10,3,RX*%
%TO.N,Net-(M10-RX)*%
X189298000Y-85780000D03*
%TO.P,M10,4,VCC*%
%TO.N,+3V3*%
X189298000Y-83240000D03*
%TD*%
D11*
%TO.P,M8,1,3V3*%
%TO.N,+3V3*%
X226770000Y-78920000D03*
%TO.P,M8,2,EN*%
%TO.N,Net-(M6-EN)*%
X226770000Y-76380000D03*
%TO.P,M8,3,VP*%
%TO.N,Net-(M6-VP)*%
X226770000Y-73840000D03*
%TO.P,M8,4,VN*%
%TO.N,Net-(M6-VN)*%
X226770000Y-71300000D03*
%TO.P,M8,5,34*%
%TO.N,Net-(M6-34)*%
X226770000Y-68760000D03*
%TO.P,M8,6,35*%
%TO.N,Net-(M6-35)*%
X226770000Y-66220000D03*
%TO.P,M8,7,32*%
%TO.N,Net-(M6-32)*%
X226770000Y-63680000D03*
%TO.P,M8,8,33*%
%TO.N,Net-(M6-33)*%
X226770000Y-61140000D03*
%TO.P,M8,9,25*%
%TO.N,Net-(M1-DIN)*%
X226770000Y-58600000D03*
%TO.P,M8,10,26*%
%TO.N,Net-(M1-BCLK)*%
X226770000Y-56060000D03*
%TO.P,M8,11,27*%
%TO.N,Net-(M1-LRC)*%
X226770000Y-53520000D03*
%TO.P,M8,12,14*%
%TO.N,Net-(M6-14)*%
X226770000Y-50980000D03*
%TO.P,M8,13,12*%
%TO.N,Net-(M6-12)*%
X226770000Y-48440000D03*
%TO.P,M8,14,GND*%
%TO.N,GND*%
X226770000Y-45900000D03*
%TO.P,M8,15,13*%
%TO.N,Net-(M6-13)*%
X226770000Y-43360000D03*
%TO.P,M8,16,D2*%
%TO.N,Net-(M6-D2)*%
X226770000Y-40820000D03*
%TO.P,M8,17,D3*%
%TO.N,Net-(M6-D3)*%
X226770000Y-38280000D03*
%TO.P,M8,18,CMD*%
%TO.N,Net-(M6-CMD)*%
X226770000Y-35740000D03*
%TO.P,M8,19,5V*%
%TO.N,+5V*%
X226770000Y-33200000D03*
%TD*%
D12*
%TO.P,M5,1,SIG*%
%TO.N,Net-(M5-SIG)*%
X148950000Y-86450000D03*
%TO.P,M5,2,NC*%
%TO.N,Net-(M5-NC)*%
X146950000Y-86450000D03*
%TO.P,M5,3,VCC*%
%TO.N,+3V3*%
X144950000Y-86450000D03*
%TO.P,M5,4,GND*%
%TO.N,GND*%
X142950000Y-86450000D03*
%TD*%
D10*
%TO.P,M6,1,CLK*%
%TO.N,unconnected-(M6-CLK-Pad1)*%
X201400000Y-33170000D03*
%TO.P,M6,2,D0*%
%TO.N,unconnected-(M6-D0-Pad2)*%
X201400000Y-35710000D03*
%TO.P,M6,3,D1*%
%TO.N,unconnected-(M6-D1-Pad3)*%
X201400000Y-38250000D03*
%TO.P,M6,4,15*%
%TO.N,unconnected-(M6-15-Pad4)*%
X201400000Y-40790000D03*
%TO.P,M6,5,2*%
%TO.N,unconnected-(M6-2-Pad5)*%
X201400000Y-43330000D03*
%TO.P,M6,6,0*%
%TO.N,Net-(M5-SIG)*%
X201400000Y-45870000D03*
%TO.P,M6,7,4*%
%TO.N,Net-(M5-NC)*%
X201400000Y-48410000D03*
%TO.P,M6,8,16*%
%TO.N,Net-(M10-TX)*%
X201400000Y-50950000D03*
%TO.P,M6,9,17*%
%TO.N,Net-(M10-RX)*%
X201400000Y-53490000D03*
%TO.P,M6,10,5*%
%TO.N,Net-(M6-5)*%
X201400000Y-56030000D03*
%TO.P,M6,11,18*%
%TO.N,Net-(M6-18)*%
X201400000Y-58570000D03*
%TO.P,M6,12,19*%
%TO.N,Net-(M6-19)*%
X201400000Y-61110000D03*
%TO.P,M6,13,GND*%
%TO.N,GND*%
X201400000Y-63650000D03*
%TO.P,M6,14,21*%
%TO.N,Net-(M2-SDA)*%
X201400000Y-66190000D03*
%TO.P,M6,15,RX*%
%TO.N,unconnected-(M6-RX-Pad15)*%
X201400000Y-68730000D03*
%TO.P,M6,16,TX*%
%TO.N,unconnected-(M6-TX-Pad16)*%
X201400000Y-71270000D03*
%TO.P,M6,17,22*%
%TO.N,Net-(M2-SCK)*%
X201400000Y-73810000D03*
%TO.P,M6,18,23*%
%TO.N,Net-(M6-23)*%
X201400000Y-76350000D03*
%TO.P,M6,19,GND*%
%TO.N,GND*%
X201400000Y-78890000D03*
%TO.P,M6,20,3V3*%
%TO.N,+3V3*%
X224260000Y-78890000D03*
%TO.P,M6,21,EN*%
%TO.N,Net-(M6-EN)*%
X224260000Y-76350000D03*
%TO.P,M6,22,VP*%
%TO.N,Net-(M6-VP)*%
X224260000Y-73810000D03*
%TO.P,M6,23,VN*%
%TO.N,Net-(M6-VN)*%
X224260000Y-71270000D03*
%TO.P,M6,24,34*%
%TO.N,Net-(M6-34)*%
X224260000Y-68730000D03*
%TO.P,M6,25,35*%
%TO.N,Net-(M6-35)*%
X224260000Y-66190000D03*
%TO.P,M6,26,32*%
%TO.N,Net-(M6-32)*%
X224260000Y-63650000D03*
%TO.P,M6,27,33*%
%TO.N,Net-(M6-33)*%
X224260000Y-61110000D03*
%TO.P,M6,28,25*%
%TO.N,Net-(M1-DIN)*%
X224260000Y-58570000D03*
%TO.P,M6,29,26*%
%TO.N,Net-(M1-BCLK)*%
X224260000Y-56030000D03*
%TO.P,M6,30,27*%
%TO.N,Net-(M1-LRC)*%
X224260000Y-53490000D03*
%TO.P,M6,31,14*%
%TO.N,Net-(M6-14)*%
X224260000Y-50950000D03*
%TO.P,M6,32,12*%
%TO.N,Net-(M6-12)*%
X224260000Y-48410000D03*
%TO.P,M6,33,GND*%
%TO.N,GND*%
X224260000Y-45870000D03*
%TO.P,M6,34,13*%
%TO.N,Net-(M6-13)*%
X224260000Y-43330000D03*
%TO.P,M6,35,D2*%
%TO.N,Net-(M6-D2)*%
X224260000Y-40790000D03*
%TO.P,M6,36,D3*%
%TO.N,Net-(M6-D3)*%
X224260000Y-38250000D03*
%TO.P,M6,37,CMD*%
%TO.N,Net-(M6-CMD)*%
X224260000Y-35710000D03*
%TO.P,M6,38,5V*%
%TO.N,+5V*%
X224260000Y-33170000D03*
%TD*%
%TO.P,M3,1,SCL*%
%TO.N,Net-(M2-SCK)*%
X149850000Y-75650000D03*
%TO.P,M3,2,SDA*%
%TO.N,Net-(M2-SDA)*%
X149850000Y-73650000D03*
%TO.P,M3,3,VCC*%
%TO.N,+3V3*%
X149850000Y-71650000D03*
%TO.P,M3,4,GND*%
%TO.N,GND*%
X149850000Y-69650000D03*
%TD*%
D13*
%TO.P,M1,1,LRC*%
%TO.N,Net-(M1-LRC)*%
X220660000Y-100260000D03*
%TO.P,M1,2,BCLK*%
%TO.N,Net-(M1-BCLK)*%
X220660000Y-97720000D03*
%TO.P,M1,3,DIN*%
%TO.N,Net-(M1-DIN)*%
X220660000Y-95180000D03*
%TO.P,M1,4,GAIN*%
%TO.N,GND*%
X220660000Y-92640000D03*
%TO.P,M1,5,SD*%
%TO.N,unconnected-(M1-SD-Pad5)*%
X220660000Y-90100000D03*
%TO.P,M1,6,GND*%
%TO.N,GND*%
X220660000Y-87560000D03*
%TO.P,M1,7,VIN*%
%TO.N,+5V*%
X220660000Y-85020000D03*
%TD*%
D12*
%TO.P,M7,1,3V3*%
%TO.N,+3V3*%
X168148510Y-56372530D03*
%TO.P,M7,2,CS*%
%TO.N,Net-(M6-5)*%
X170688510Y-56372530D03*
%TO.P,M7,3,MOSI*%
%TO.N,Net-(M6-23)*%
X173228510Y-56372530D03*
%TO.P,M7,4,CLK*%
%TO.N,Net-(M6-18)*%
X175768510Y-56372530D03*
%TO.P,M7,5,MISO*%
%TO.N,Net-(M6-19)*%
X178308510Y-56372530D03*
%TO.P,M7,6,GND*%
%TO.N,GND*%
X180848510Y-56372530D03*
%TD*%
D10*
%TO.P,M4,1,SCL*%
%TO.N,Net-(M2-SCK)*%
X140450000Y-75650000D03*
%TO.P,M4,2,SDA*%
%TO.N,Net-(M2-SDA)*%
X140450000Y-73650000D03*
%TO.P,M4,3,VCC*%
%TO.N,+3V3*%
X140450000Y-71650000D03*
%TO.P,M4,4,GND*%
%TO.N,GND*%
X140450000Y-69650000D03*
%TD*%
D12*
%TO.P,M9,1,RX*%
%TO.N,Net-(M10-RX)*%
X148900000Y-94800000D03*
%TO.P,M9,2,TX*%
%TO.N,Net-(M10-TX)*%
X146900000Y-94800000D03*
%TO.P,M9,3,VCC*%
%TO.N,+3V3*%
X144900000Y-94800000D03*
%TO.P,M9,4,GND*%
%TO.N,GND*%
X142900000Y-94800000D03*
%TD*%
D10*
%TO.P,M2,1,GND*%
%TO.N,GND*%
X192635000Y-61840000D03*
%TO.P,M2,2,VCC*%
%TO.N,+3V3*%
X192635000Y-64380000D03*
%TO.P,M2,3,SCK*%
%TO.N,Net-(M2-SCK)*%
X192635000Y-66920000D03*
%TO.P,M2,4,SDA*%
%TO.N,Net-(M2-SDA)*%
X192635000Y-69460000D03*
%TD*%
D14*
%TO.N,GND*%
X142950000Y-86450000D02*
X142950000Y-85900000D01*
X229800000Y-81650000D02*
X233450000Y-78000000D01*
X201400000Y-78890000D02*
X216570000Y-63720000D01*
X220080000Y-87560000D02*
X215000000Y-92640000D01*
X204690000Y-92640000D02*
X199000000Y-86950000D01*
X149850000Y-69650000D02*
X140450000Y-69650000D01*
X177500000Y-100450000D02*
X187090000Y-90860000D01*
X220850000Y-47050000D02*
X222030000Y-45870000D01*
X215250000Y-92640000D02*
X215000000Y-92640000D01*
X145800000Y-100450000D02*
X177500000Y-100450000D01*
X196100000Y-63650000D02*
X194290000Y-61840000D01*
X233450000Y-48950000D02*
X230400000Y-45900000D01*
X180848510Y-57998510D02*
X184690000Y-61840000D01*
X142900000Y-94800000D02*
X142900000Y-97550000D01*
X142950000Y-85900000D02*
X136250000Y-79200000D01*
X220850000Y-59440000D02*
X220850000Y-47050000D01*
X184690000Y-61840000D02*
X192635000Y-61840000D01*
X142950000Y-94750000D02*
X142900000Y-94800000D01*
X216570000Y-63720000D02*
X220850000Y-59440000D01*
X215000000Y-92640000D02*
X204690000Y-92640000D01*
X142950000Y-86450000D02*
X142950000Y-94750000D01*
X136250000Y-71800000D02*
X138400000Y-69650000D01*
X196100000Y-63650000D02*
X201400000Y-63650000D01*
X189298000Y-90860000D02*
X195090000Y-90860000D01*
X222030000Y-45870000D02*
X224260000Y-45870000D01*
X201400000Y-63650000D02*
X216500000Y-63650000D01*
X220660000Y-92640000D02*
X215250000Y-92640000D01*
X216500000Y-63650000D02*
X216570000Y-63720000D01*
X136250000Y-79200000D02*
X136250000Y-71800000D01*
X142900000Y-97550000D02*
X145800000Y-100450000D01*
X233450000Y-78000000D02*
X233450000Y-48950000D01*
X195090000Y-90860000D02*
X199000000Y-86950000D01*
X180848510Y-56372530D02*
X180848510Y-57998510D01*
X224260000Y-45870000D02*
X226740000Y-45870000D01*
X226740000Y-45870000D02*
X226770000Y-45900000D01*
X187090000Y-90860000D02*
X189298000Y-90860000D01*
X220660000Y-87560000D02*
X220080000Y-87560000D01*
X199000000Y-86950000D02*
X204300000Y-81650000D01*
X204300000Y-81650000D02*
X229800000Y-81650000D01*
X194290000Y-61840000D02*
X192635000Y-61840000D01*
X230400000Y-45900000D02*
X226770000Y-45900000D01*
X138400000Y-69650000D02*
X140450000Y-69650000D01*
%TO.N,Net-(M1-DIN)*%
X226740000Y-58570000D02*
X226770000Y-58600000D01*
X224260000Y-58570000D02*
X226740000Y-58570000D01*
%TO.N,Net-(M1-BCLK)*%
X226740000Y-56030000D02*
X226770000Y-56060000D01*
X224260000Y-56030000D02*
X226740000Y-56030000D01*
X220660000Y-97720000D02*
X220330000Y-97720000D01*
%TO.N,+5V*%
X226770000Y-33200000D02*
X232900000Y-33200000D01*
X224260000Y-33170000D02*
X226740000Y-33170000D01*
X232900000Y-33200000D02*
X235000000Y-35300000D01*
X235000000Y-35300000D02*
X235000000Y-78600000D01*
X228580000Y-85020000D02*
X220660000Y-85020000D01*
X226740000Y-33170000D02*
X226770000Y-33200000D01*
X235000000Y-78600000D02*
X228580000Y-85020000D01*
%TO.N,Net-(M1-LRC)*%
X224260000Y-53490000D02*
X226740000Y-53490000D01*
X226740000Y-53490000D02*
X226770000Y-53520000D01*
%TO.N,+3V3*%
X200460000Y-83240000D02*
X204810000Y-78890000D01*
X204810000Y-78890000D02*
X224260000Y-78890000D01*
X144950000Y-94750000D02*
X144900000Y-94800000D01*
X137950000Y-71650000D02*
X140450000Y-71650000D01*
X149850000Y-71650000D02*
X140450000Y-71650000D01*
X168148510Y-62090510D02*
X189298000Y-83240000D01*
X189298000Y-83240000D02*
X200460000Y-83240000D01*
X224260000Y-78890000D02*
X226740000Y-78890000D01*
X226740000Y-78890000D02*
X226770000Y-78920000D01*
X144950000Y-85650000D02*
X137100000Y-77800000D01*
X149775000Y-71305000D02*
X149875000Y-71405000D01*
X137100000Y-77800000D02*
X137100000Y-72500000D01*
X144950000Y-86450000D02*
X144950000Y-85650000D01*
X168148510Y-56372530D02*
X168148510Y-62090510D01*
X144950000Y-86450000D02*
X144950000Y-94750000D01*
X137100000Y-72500000D02*
X137950000Y-71650000D01*
%TO.N,Net-(M2-SDA)*%
X198300000Y-66300000D02*
X201290000Y-66300000D01*
X149775000Y-73845000D02*
X149875000Y-73945000D01*
X195140000Y-69460000D02*
X198300000Y-66300000D01*
X149850000Y-73650000D02*
X140450000Y-73650000D01*
X201290000Y-66300000D02*
X201400000Y-66190000D01*
X192635000Y-69460000D02*
X195140000Y-69460000D01*
%TO.N,Net-(M5-SIG)*%
X193470000Y-45870000D02*
X201400000Y-45870000D01*
X148950000Y-86450000D02*
X156050000Y-86450000D01*
X158350000Y-84150000D02*
X158350000Y-45550000D01*
X156050000Y-86450000D02*
X158350000Y-84150000D01*
X162400000Y-41500000D02*
X189100000Y-41500000D01*
X158350000Y-45550000D02*
X162400000Y-41500000D01*
X189100000Y-41500000D02*
X193470000Y-45870000D01*
%TO.N,Net-(M6-34)*%
X226740000Y-68730000D02*
X226770000Y-68760000D01*
X224260000Y-68730000D02*
X226740000Y-68730000D01*
%TO.N,Net-(M10-TX)*%
X160150000Y-58850000D02*
X160150000Y-48250000D01*
X192850000Y-50950000D02*
X201400000Y-50950000D01*
X186580000Y-88320000D02*
X189298000Y-88320000D01*
X165200000Y-43200000D02*
X185100000Y-43200000D01*
X146900000Y-98550000D02*
X147650000Y-99300000D01*
X175600000Y-99300000D02*
X186580000Y-88320000D01*
X189298000Y-88320000D02*
X189298000Y-87998000D01*
X160150000Y-48250000D02*
X165200000Y-43200000D01*
X185100000Y-43200000D02*
X192850000Y-50950000D01*
X147650000Y-99300000D02*
X175600000Y-99300000D01*
X189298000Y-87998000D02*
X160150000Y-58850000D01*
X146900000Y-94800000D02*
X146900000Y-98550000D01*
%TO.N,Net-(M6-CMD)*%
X226740000Y-35710000D02*
X226770000Y-35740000D01*
X224260000Y-35710000D02*
X226740000Y-35710000D01*
%TO.N,Net-(M6-18)*%
X189130000Y-56730000D02*
X199560000Y-56730000D01*
X185000000Y-52600000D02*
X189130000Y-56730000D01*
X199560000Y-56730000D02*
X201400000Y-58570000D01*
X179541040Y-52600000D02*
X185000000Y-52600000D01*
X175768510Y-56372530D02*
X179541040Y-52600000D01*
%TO.N,Net-(M6-14)*%
X226740000Y-50950000D02*
X226770000Y-50980000D01*
X224260000Y-50950000D02*
X226740000Y-50950000D01*
%TO.N,Net-(M6-VP)*%
X224260000Y-73810000D02*
X226740000Y-73810000D01*
X226740000Y-73810000D02*
X226770000Y-73840000D01*
%TO.N,Net-(M6-33)*%
X224260000Y-61110000D02*
X226740000Y-61110000D01*
X226740000Y-61110000D02*
X226770000Y-61140000D01*
%TO.N,Net-(M6-19)*%
X180731040Y-53950000D02*
X184800000Y-53950000D01*
X188280000Y-57430000D02*
X197720000Y-57430000D01*
X197720000Y-57430000D02*
X201400000Y-61110000D01*
X178308510Y-56372530D02*
X180731040Y-53950000D01*
X184800000Y-53950000D02*
X188280000Y-57430000D01*
%TO.N,Net-(M6-D3)*%
X226740000Y-38250000D02*
X226770000Y-38280000D01*
X224260000Y-38250000D02*
X226740000Y-38250000D01*
%TO.N,Net-(M6-35)*%
X226740000Y-66190000D02*
X226770000Y-66220000D01*
X224260000Y-66190000D02*
X226740000Y-66190000D01*
%TO.N,Net-(M10-RX)*%
X163100000Y-59582000D02*
X163100000Y-48700000D01*
X185200000Y-45550000D02*
X189000000Y-49350000D01*
X193090000Y-53490000D02*
X201400000Y-53490000D01*
X163100000Y-48700000D02*
X166250000Y-45550000D01*
X189298000Y-85780000D02*
X163100000Y-59582000D01*
X166250000Y-45550000D02*
X185200000Y-45550000D01*
X189000000Y-49400000D02*
X193090000Y-53490000D01*
X189000000Y-49350000D02*
X189000000Y-49400000D01*
%TO.N,Net-(M6-12)*%
X226740000Y-48410000D02*
X226770000Y-48440000D01*
X224260000Y-48410000D02*
X226740000Y-48410000D01*
%TO.N,Net-(M6-5)*%
X170688510Y-56372530D02*
X175961040Y-51100000D01*
X175961040Y-51100000D02*
X186350000Y-51100000D01*
X191280000Y-56030000D02*
X201400000Y-56030000D01*
X186350000Y-51100000D02*
X191280000Y-56030000D01*
%TO.N,Net-(M6-VN)*%
X224260000Y-71270000D02*
X226740000Y-71270000D01*
X226740000Y-71270000D02*
X226770000Y-71300000D01*
%TO.N,Net-(M6-D2)*%
X226740000Y-40790000D02*
X226770000Y-40820000D01*
X224260000Y-40790000D02*
X226740000Y-40790000D01*
%TO.N,Net-(M6-13)*%
X224260000Y-43330000D02*
X226740000Y-43330000D01*
X226740000Y-43330000D02*
X226770000Y-43360000D01*
%TO.N,Net-(M6-32)*%
X226740000Y-63650000D02*
X226770000Y-63680000D01*
X224260000Y-63650000D02*
X226740000Y-63650000D01*
%TO.N,Net-(M6-EN)*%
X224260000Y-76350000D02*
X226740000Y-76350000D01*
X226740000Y-76350000D02*
X226770000Y-76380000D01*
%TO.N,Net-(M6-23)*%
X185350000Y-73450000D02*
X195350000Y-73450000D01*
X198250000Y-76350000D02*
X201400000Y-76350000D01*
X173228510Y-61328510D02*
X185350000Y-73450000D01*
X195350000Y-73450000D02*
X198250000Y-76350000D01*
X173228510Y-56372530D02*
X173228510Y-61328510D01*
%TO.N,Net-(M2-SCK)*%
X192635000Y-66920000D02*
X189530000Y-66920000D01*
X197510000Y-73810000D02*
X201400000Y-73810000D01*
X149850000Y-75650000D02*
X140450000Y-75650000D01*
X188800000Y-72000000D02*
X189050000Y-72250000D01*
X189050000Y-72250000D02*
X195950000Y-72250000D01*
X188800000Y-67650000D02*
X188800000Y-72000000D01*
X195950000Y-72250000D02*
X197510000Y-73810000D01*
X189530000Y-66920000D02*
X188800000Y-67650000D01*
%TD*%
M02*
