M48
; DRILL file {KiCad 8.0.3} date 2024-06-24T21:54:54-0700
; FORMAT={-:-/ absolute / inch / decimal}
; #@! TF.CreationDate,2024-06-24T21:54:54-07:00
; #@! TF.GenerationSoftware,Kicad,Pcbnew,8.0.3
; #@! TF.FileFunction,Plated,1,2,PTH
FMAT,2
INCH
; #@! TA.AperFunction,Plated,PTH,ComponentDrill
T1C0.0315
%
G90
G05
T1
X5.5295Y-2.7421
X5.5295Y-2.8209
X5.5295Y-2.8996
X5.5295Y-2.9783
X5.626Y-3.7323
X5.628Y-3.4035
X5.7047Y-3.7323
X5.7067Y-3.4035
X5.7835Y-3.7323
X5.7854Y-3.4035
X5.8622Y-3.7323
X5.8642Y-3.4035
X5.8996Y-2.7421
X5.8996Y-2.8209
X5.8996Y-2.8996
X5.8996Y-2.9783
X6.62Y-2.2194
X6.72Y-2.2194
X6.82Y-2.2194
X6.92Y-2.2194
X7.02Y-2.2194
X7.12Y-2.2194
X7.4527Y-3.2772
X7.4527Y-3.3772
X7.4527Y-3.4772
X7.4527Y-3.5772
X7.5841Y-2.4346
X7.5841Y-2.5346
X7.5841Y-2.6346
X7.5841Y-2.7346
X7.9291Y-1.3059
X7.9291Y-1.4059
X7.9291Y-1.5059
X7.9291Y-1.6059
X7.9291Y-1.7059
X7.9291Y-1.8059
X7.9291Y-1.9059
X7.9291Y-2.0059
X7.9291Y-2.1059
X7.9291Y-2.2059
X7.9291Y-2.3059
X7.9291Y-2.4059
X7.9291Y-2.5059
X7.9291Y-2.6059
X7.9291Y-2.7059
X7.9291Y-2.8059
X7.9291Y-2.9059
X7.9291Y-3.0059
X7.9291Y-3.1059
X8.6874Y-3.3472
X8.6874Y-3.4472
X8.6874Y-3.5472
X8.6874Y-3.6472
X8.6874Y-3.7472
X8.6874Y-3.8472
X8.6874Y-3.9472
X8.8291Y-1.3059
X8.8291Y-1.4059
X8.8291Y-1.5059
X8.8291Y-1.6059
X8.8291Y-1.7059
X8.8291Y-1.8059
X8.8291Y-1.9059
X8.8291Y-2.0059
X8.8291Y-2.1059
X8.8291Y-2.2059
X8.8291Y-2.3059
X8.8291Y-2.4059
X8.8291Y-2.5059
X8.8291Y-2.6059
X8.8291Y-2.7059
X8.8291Y-2.8059
X8.8291Y-2.9059
X8.8291Y-3.0059
X8.8291Y-3.1059
X8.928Y-1.3071
X8.928Y-1.4071
X8.928Y-1.5071
X8.928Y-1.6071
X8.928Y-1.7071
X8.928Y-1.8071
X8.928Y-1.9071
X8.928Y-2.0071
X8.928Y-2.1071
X8.928Y-2.2071
X8.928Y-2.3071
X8.928Y-2.4071
X8.928Y-2.5071
X8.928Y-2.6071
X8.928Y-2.7071
X8.928Y-2.8071
X8.928Y-2.9071
X8.928Y-3.0071
X8.928Y-3.1071
M30
